<?xml version="1.0" encoding="utf-8"?>
<!-- Generator: Adobe Illustrator 19.1.1, SVG Export Plug-In . SVG Version: 6.00 Build 0)  -->
<svg version="1.1" id="Layer_1" xmlns="http://www.w3.org/2000/svg" xmlns:xlink="http://www.w3.org/1999/xlink" x="0px" y="0px"
	 viewBox="394.5 327.8 1222.9 113.9" style="enable-background:new 394.5 327.8 1222.9 113.9;" xml:space="preserve">
<style type="text/css">
	.st0{fill:#FFFFFF;}
	.st1{fill:#EDE0DE;}
</style>
<g>
	<g>
		<g>
			<g>
				<path class="st0" d="M430.5,430.1c-14.3,0-25.2-4.7-36-14.3l4.3-5c9.8,9.1,18.9,13.3,32,13.3c13.4,0,22.6-7.5,22.6-17.7v-0.3
					c0-9.4-5-14.9-25.2-19c-21.4-4.3-30.1-11.6-30.1-25.1v-0.3c0-13.3,12.1-23.5,28.7-23.5c13,0,21.5,3.6,30.6,10.8l-4.2,5.2
					c-8.4-7.3-16.8-10.1-26.6-10.1c-13.1,0-21.8,7.5-21.8,16.8v0.3c0,9.4,4.8,15.2,26,19.5c20.7,4.2,29.3,11.6,29.3,24.6v0.3
					C460.1,420.1,447.7,430.1,430.5,430.1z"/>
				<path class="st0" d="M507.5,345.7v83.1h-6.6v-83.1h-31.1v-6.1h68.9v6.1H507.5L507.5,345.7z"/>
				<path class="st0" d="M590,430.3c-27,0-44.8-21.5-44.8-45.9v-0.3c0-24.4,18-46.2,45-46.2s44.8,21.5,44.8,45.9
					c0.1,0.1,0.1,0.1,0,0.3C635,408.5,617,430.3,590,430.3z M628.1,384.2c0-22.1-16.1-40.2-38.1-40.2c-22.1,0-37.9,17.9-37.9,39.9
					v0.3c0,22.1,16.1,40.2,38.1,40.2c22.1,0,37.9-17.9,37.9-39.9V384.2z"/>
				<path class="st0" d="M723,428.8l-62.9-79.3v79.3h-6.4v-89.3h6.2l61.6,77.7v-77.7h6.4v89.3H723z"/>
				<path class="st0" d="M753.8,428.8v-89.3h63.5v6.1h-56.9v35.1h51.1v6.1h-51.1v35.8H818v6.1h-64.2V428.8z"/>
				<path class="st0" d="M971.5,430.1c-14.3,0-25.2-4.7-36-14.3l4.3-5c9.8,9.1,18.9,13.3,32,13.3c13.4,0,22.6-7.5,22.6-17.7v-0.3
					c0-9.4-5-14.9-25.2-19c-21.4-4.3-30.1-11.6-30.1-25.1v-0.3c0-13.3,12.1-23.5,28.7-23.5c13,0,21.5,3.6,30.6,10.8l-4.2,5.2
					c-8.4-7.3-16.8-10.1-26.6-10.1c-13.1,0-21.8,7.5-21.8,16.8v0.3c0,9.4,4.8,15.2,26,19.5c20.7,4.2,29.3,11.6,29.3,24.6v0.3
					C1001.1,420.1,988.7,430.1,971.5,430.1z"/>
				<path class="st0" d="M1049.8,345.7v83.1h-6.6v-83.1H1012v-6.1h68.9v6.1H1049.8L1049.8,345.7z"/>
				<path class="st0" d="M1164.7,428.8l-28.4-37H1107v37h-6.6v-89.3h37.5c19.3,0,31.9,10.5,31.9,25.4v0.3
					c0,14.9-11.1,23.5-26.1,25.5l29.5,38.1H1164.7z M1163.1,365.2c0-12-9.4-19.5-25.6-19.5H1107v40.2h30.1c14.9,0,26-7.5,26-20.4
					V365.2z"/>
				<path class="st0" d="M1266.5,428.8l-11.3-25h-52.7l-11.4,25h-6.9l41.6-89.9h6.4l41.6,89.9H1266.5z M1228.9,346.2l-23.6,51.6h47
					L1228.9,346.2z"/>
				<path class="st0" d="M1359.4,428.8l-62.9-79.3v79.3h-6.4v-89.3h6.2l61.6,77.7v-77.7h6.4v89.3H1359.4z"/>
				<path class="st0" d="M1420.6,428.8h-29.7v-89.3h29.7c28,0,47.4,19.3,47.4,44.4v0.3C1468,409.3,1448.6,428.8,1420.6,428.8z
					 M1461.1,384.2c0-21.2-15.7-38.5-40.5-38.5h-23.1v77h23.1c24.9,0,40.5-17,40.5-38.3V384.2z"/>
			</g>
		</g>
		<g>
			<path class="st0" d="M912.1,439.6c-0.1,0-0.2-0.2-0.3-0.3c-0.4-0.5-0.8-1.1-1.2-1.6c-0.2-0.3-0.5-0.6-0.8-0.9
				c-0.8-0.9-1.5-1.8-2.6-2.4c-0.2-0.1-0.3-0.2-0.4-0.4c-0.8-0.9-1.5-1.7-2.3-2.6c-0.6-0.6-1.2-1.2-1.7-1.9c-1.2-1.6-2.4-3.3-3.6-5
				c-0.9-1.2-1.8-2.4-2.6-3.6c-0.5-0.7-0.9-1.4-1.3-2c1.4-1.5,2.8-2.9,4-4.4c1.4-1.7,2.5-3.6,3.8-5.4c0.4-0.5,0.7-1.1,1-1.7
				c0.3-0.7,0.6-1.4,0.9-2c0.4-0.9,0.8-1.9,1-2.8c0.3-0.9,0.7-1.8,0.8-2.7c0.1-0.5,0.4-1,0.5-1.5c0.2-1.1,0.5-2.2,0.6-3.3
				c0.1-1.2,0.2-2.4-0.1-3.6c-0.1-0.3-0.1-0.7-0.1-1s-0.1-0.6-0.1-0.9c0-0.2,0-0.5-0.1-0.7c0-0.2-0.1-0.5-0.2-0.7
				c-1.4-2-2.7-4.1-4.7-5.7c-0.1-0.1-0.2-0.2-0.3-0.3c-0.3-0.4-0.7-0.7-1.2-0.8c-0.1,0.2-0.2,0.4-0.3,0.7c-0.1,1.1-0.3,2.2-0.4,3.3
				v0.1c0,1.7,0,3.4,0,5c0,0.8-0.1,1.6-0.3,2.4c-0.2,0.9-0.5,1.9-0.8,2.8c-0.4,1.5-0.8,3-1.3,4.5c-0.5,1.4-0.8,2.9-1.4,4.3
				c-0.9,2-1.6,4-2.8,5.8c-0.7,1.1-1.4,2.1-2.1,3.1c-0.1,0.2-0.3,0.3-0.5,0.5c-0.6-0.7-1.1-1.3-1.6-2c-0.4-0.6-0.9-1.1-1.2-1.7
				c-0.8-1.2-1.4-2.5-2.2-3.7c-0.7-1.1-1.3-2.2-2.1-3.1c-1.1-1.3-1.8-3-2.7-4.4c0.7-1,1.4-2,2-2.9c0.4-0.6,1-1.1,1.4-1.7
				c1.6-2.5,3.1-5.1,4.6-7.6c1.5-2.6,2.8-5.3,4-8c0.8-1.8,1.6-3.7,1.9-5.7c0.1-0.5,0.3-1.1,0.5-1.6c0.1-0.3,0.3-0.6,0.3-0.9
				c0.1-1,0.2-2,0.3-3c0-0.2,0.1-0.3,0.1-0.5c0.1-1.4,0.3-2.8,0.2-4.1c0-1.8-0.3-3.5-0.3-5.2c0-1.9-0.3-3.8-0.4-5.7
				c-0.1-0.6-0.1-1.1-0.2-1.7c-0.3-1.1-0.7-2.2-1-3.4c-0.1-0.2-0.2-0.4-0.3-0.6c-0.1-0.2-0.2-0.3-0.2-0.5c-0.2-1.1-0.7-2-1.3-2.9
				s-1.2-1.9-1.6-2.8c-0.5-1.1-1.2-1.8-2.3-2.3c-0.3-0.1-0.7-0.3-1-0.5c-1.3-0.7-2.5-1.4-3.8-2.1c-0.3-0.2-0.7-0.3-1-0.5
				c-1.7-0.9-3.3-1.8-5-2.7c-0.3-0.2-0.6-0.3-0.9-0.5c-1.2-0.7-2.3-1.5-3.7-1.9c-0.3-0.1-0.6-0.3-0.8-0.4c-0.2-0.1-0.5-0.3-0.7-0.4
				c-0.6-0.3-1.3-0.6-2-0.7c-0.7-0.2-1.4-0.6-2.2-0.3c-0.1,0-0.2,0-0.3,0c-0.6-0.2-1,0-1.3,0.5c-0.1,0.1-0.2,0.2-0.3,0.3
				c-0.7,0.7-1.5,1.3-2.2,2c-1,1-1.8,2.1-2.5,3.3c-0.5,1-1.1,2-1.5,3.1c-0.7,1.4-1.3,2.9-1.7,4.4c-0.3,1.2-0.6,2.3-0.9,3.5
				c-0.1,0.5-0.3,1-0.3,1.5c-0.1,2-0.6,4-0.5,6c0,1.3,0,2.6,0.2,3.9c0.2,1.3,0.5,2.5,0.9,3.8c0.6,2.1,1.3,4.1,2,6.2
				c0.1,0.4,0.2,0.8,0.4,1.3c0.4,1.4,0.9,2.9,1.3,4.3c0.6,1.9,1.1,3.9,1.8,5.8c1,2.8,2.2,5.6,3.3,8.3c0.9,2.4,2,4.8,3.1,7.1
				c0.6,1.3,1.3,2.6,2,3.9c0.3,0.5,0.3,0.5-0.1,0.9c-0.9,0.9-1.8,1.8-2.7,2.7c-1.5,1.6-3,3.2-4.5,4.7c-1.4,1.5-2.9,2.9-4.3,4.3
				c-2.1,2-4.2,3.9-6.2,5.9c-1.7,1.6-3.2,3.3-4.9,5c-0.9,0.9-1.7,2-2.4,3.1c-0.4,0.7-0.3,1.3-0.1,1.9c0.2,0.7,0.5,1.5,1.4,1.9
				l0.1,0.1c0.1,0.7,0.8,0.7,1.2,1.1c0.2,0.2,0.4,0.4,0.5,0.6c0.1,0.1,0.1,0.1,0.2,0.2c0.5,0.3,1.1,0.5,1.6,0.8
				c1.6,0.8,3.4,1.3,5.1,1.7c1.3,0.3,2.6,0.7,3.9,0.8c2.7,0.3,5.4,0.2,8.1-0.3c1.6-0.3,3.3-0.7,4.9-1.1c1.2-0.4,2.4-0.7,3.6-1.1
				c0.5-0.2,1-0.4,1.6-0.6c0.8-0.4,1.6-0.8,2.3-1.1c0.1-0.1,0.3-0.1,0.4-0.1c0.2-0.1,0.4-0.1,0.6-0.2c0.9-0.4,1.8-0.8,2.7-1.3
				c0.4-0.2,0.8-0.4,1.1-0.7c1.2-1,2.4-1.9,3.9-2.5c0.4,0.4,0.8,0.8,1.1,1.2c1.1,1.3,2.2,2.7,3.3,4c0.6,0.7,1.2,1.4,1.9,2
				c0,0.1,0.1,0.1,0.2,0.1c0.2,0.2,0.5,0.3,0.7,0.6c1,1,1.9,2,3.1,2.8c2.1,1.4,3.9,3.2,6.1,4.6c1,0.7,2,1.4,3,2.1
				c0.6,0.4,1.2,0.6,2,0.5c0.3-0.1,0.7-0.1,1-0.2c0.2-0.1,0.4-0.3,0.6-0.5l0.1-0.1C912.4,440.4,912.7,439.8,912.1,439.6z
				 M871.8,380.7c-0.3-0.6-0.5-1.1-0.7-1.7c-0.4-0.8-0.7-1.6-1.1-2.4c-0.2-0.5-0.5-0.9-0.6-1.4c-0.6-1.7-1.1-3.5-1.8-5.2
				c-0.9-2.3-1.4-4.6-2.1-7c-0.5-1.7-0.6-3.4-0.7-5.1c-0.1-1.1-0.1-2.3-0.4-3.4c-0.1-0.6,0-1.4,0-2c0.1-0.9,0.1-1.8,0.2-2.7
				c0.2-1,0.4-2.1,0.7-3.1c0.5-1.8,1.2-3.5,2-5.2c0.4-0.9,0.9-1.8,1.4-2.7c0.3-0.5,0.6-0.6,1.1-0.5c1.6,0.3,3.2,0.6,4.6,1.4
				c0.9,0.5,1.8,0.9,2.7,1.3c0.3,0.2,0.7,0.4,1,0.6c0.8,0.5,1.7,1.1,2.5,1.6c1,0.7,1.9,1.4,2.6,2.4c0.3,0.4,0.6,0.7,0.8,1.1
				c0.9,1.2,1.7,2.4,2.5,3.6c0.8,1.3,1.3,2.8,1.6,4.4c0.3,1.2,0.7,2.5,0.9,3.8c0.2,1.2,0.3,2.5,0.5,3.8c0,0.2,0,0.3-0.1,0.5
				c-0.2,1-0.4,2-0.6,2.9c-0.1,0.6-0.4,1.2-0.6,1.8c-0.3,1.1-0.6,2.1-0.9,3.2c-0.1,0.5-0.4,1-0.5,1.5c-0.3,0.7-0.6,1.4-0.8,2.1
				c-0.3,1.2-0.9,2.2-1.3,3.2c-0.4,1-0.9,2-1.4,3.1c-0.3,0.7-0.7,1.4-1.1,2.1c-0.4,0.8-0.8,1.6-1.3,2.4c-0.4,0.8-0.9,1.5-1.4,2.3
				c-0.2,0.3-0.5,0.7-0.5,1c-0.1,0.9-0.7,1.6-1.3,2.3c-0.1,0.2-0.3,0.3-0.4,0.6c-0.2-0.2-0.4-0.4-0.5-0.6c-0.4-0.7-0.7-1.3-1.1-2
				c-0.4-0.7-0.7-1.4-1.2-2.1c-0.5-0.8-0.8-1.6-1.2-2.5C873,383.1,872.4,382,871.8,380.7z M884.3,420.3c-0.6,0.4-1.2,0.8-1.7,1.2
				c-0.9,0.7-1.8,1.4-2.9,1.9c-0.3,0.2-0.7,0.3-1,0.5c-0.6,0.3-1.1,0.5-1.7,0.8c-0.9,0.4-1.8,0.7-2.7,1.1s-1.9,0.8-2.8,1.2
				c-0.5,0.2-1,0.4-1.5,0.5c-0.6,0.2-1.2,0.4-1.9,0.6c-0.6,0.1-1.1,0.2-1.7,0.3c-1.8,0.2-3.6,0.3-5.4,0c-0.5-0.1-0.9-0.2-1.4-0.4
				c-0.8-0.4-1.1-1.2-0.6-1.9c0.3-0.5,0.5-1,0.9-1.4c1.3-1.7,2.6-3.3,3.9-5c0.6-0.8,1.3-1.5,1.9-2.3c0.7-0.9,1.6-1.7,2.3-2.5
				c0.8-0.9,1.6-1.9,2.4-2.9c1.2-1.4,2.5-2.8,3.8-4.1c0.7-0.7,1.3-1.5,1.9-2.3c0.1-0.1,0.2-0.2,0.4-0.4c3.2,4.7,6.3,9.2,9.5,13.9
				C885.4,419.5,884.9,419.9,884.3,420.3z"/>
		</g>
	</g>
	<g>
		<path class="st1" d="M1519.5,355.1h-1.1c0.2-1.2,0.3-2.3,0.3-3.3c0-1.5-0.2-2.8-0.8-3.8c-0.6-1.2-1.5-2.1-2.6-2.8
			c-1.1-0.7-2.4-1-3.7-1c-2.7,0-5.2,1.2-7.7,3.8s-4.5,5.6-6,9.4s-2.3,7.5-2.3,11c0,3.1,0.6,5.4,1.8,7s2.9,2.4,5.1,2.4
			c1.4,0,2.9-0.3,4.5-1s2.9-1.6,4.1-2.8c0.8-0.8,1.5-1.8,2.1-2.9s1.3-2.7,2.2-4.7h1.1c-1.5,5.3-2.4,9.2-2.8,11.5h-1.1
			c0.1-0.7,0.1-1.2,0.1-1.6c0-0.8-0.2-1.2-0.6-1.2c-0.2,0-0.6,0.1-1,0.4c-1.1,0.7-2.1,1.3-2.9,1.7s-1.7,0.7-2.7,1s-2.2,0.4-3.5,0.4
			c-3.6,0-6.3-1-8.3-2.9s-2.9-4.7-2.9-8.4s0.9-7.4,2.8-11.1s4.4-6.8,7.6-9.3s6.7-3.6,10.6-3.6c1.3,0,2.4,0.1,3.3,0.4s1.6,0.6,2.1,1
			s1.1,1,1.8,1.7c0.3,0.3,0.5,0.4,0.7,0.4c0.6,0,1.2-1,1.9-2.9h1C1521.5,346.9,1520.5,350.6,1519.5,355.1z"/>
		<path class="st1" d="M1547.4,372c-0.5,1.7-0.9,3.8-1.3,6.1c-2.2-0.1-5.8-0.1-11-0.1c-6.1,0-10.8,0-13.9,0.1l0.3-1
			c1.2,0,2-0.2,2.6-0.4s1-0.6,1.4-1.1s0.7-1.4,1-2.6l6.4-23.8c0.3-1,0.4-1.8,0.4-2.3s-0.1-0.8-0.3-1.1c-0.2-0.3-0.5-0.4-1-0.5
			s-1.1-0.2-1.9-0.2l0.2-1c1.4,0.1,3.4,0.1,6.1,0.1c2.6,0,4.6,0,6.1-0.1l-0.3,1c-1.2,0-2,0.2-2.6,0.4c-0.6,0.2-1,0.6-1.4,1.1
			s-0.7,1.4-1,2.6l-6.4,23.8c-0.3,1-0.4,1.8-0.4,2.3s0.1,0.8,0.3,1.1s0.6,0.4,1,0.5s1.1,0.1,1.9,0.1h3.5c2,0,3.6-0.3,4.8-0.8
			s2.2-1.5,3-2.7s1.6-3.1,2.5-5.4h1.1C1548.4,368.5,1548,369.9,1547.4,372z"/>
		<path class="st1" d="M1584.1,347.6c0-0.9-0.3-1.5-0.8-1.9s-1.5-0.6-2.7-0.6l0.2-1c1.1,0.1,2.7,0.1,4.9,0.1c1.9,0,3.4,0,4.5-0.1
			l-0.3,1c-1.1,0-2,0.2-2.6,0.5c-0.6,0.3-1.1,0.7-1.5,1.4c-0.4,0.7-0.7,1.5-1,2.8l-3.7,14.4c-1.2,4.5-2.7,7.8-4.7,10.2
			c-1.2,1.4-2.6,2.5-4.3,3.3s-3.6,1.2-5.5,1.2c-3.4,0-5.9-0.9-7.4-2.6c-1.1-1.2-1.7-2.9-1.7-4.9c0-1.7,0.4-4,1.2-7l4-15.1
			c0.3-1,0.4-1.8,0.4-2.3s-0.1-0.9-0.3-1.1s-0.5-0.4-1-0.5s-1.1-0.2-1.9-0.2l0.3-1c1.3,0.1,3.3,0.1,6.2,0.1c2.5,0,4.5,0,6-0.1
			l-0.3,1c-1.2,0-2,0.2-2.6,0.4c-0.6,0.2-1,0.6-1.4,1.1s-0.6,1.4-1,2.6l-4.2,15.9c-0.7,2.8-1.1,4.9-1.1,6.5c0,1.8,0.4,3.1,1.3,4.1
			s2.3,1.4,4.4,1.4c3.4,0,6-1.1,7.9-3.3s3.4-5.2,4.4-9.2l3.9-15C1584,348.8,1584.1,348.1,1584.1,347.6z"/>
		<path class="st1" d="M1601.6,344.3c0.7,0,1.8,0,3.3,0s2.6,0,3.5,0c3,0,5.2,0.5,6.7,1.6s2.3,2.6,2.3,4.5c0,1.6-0.5,3-1.4,4.3
			c-0.9,1.3-2.1,2.4-3.6,3.3c-1.5,0.9-3.1,1.7-4.9,2.2c5.2,0.9,7.9,3.5,7.9,7.8c0,2.2-0.7,4-2.1,5.6s-3.2,2.7-5.3,3.4
			s-4.5,1.1-6.9,1.1c-0.8,0-2,0-3.8-0.1s-3.3-0.1-4.5-0.1c-2.5,0-4.5,0-5.9,0.1l0.2-1c1.2,0,2-0.2,2.6-0.4s1-0.6,1.4-1.1
			s0.7-1.4,1-2.6l6.3-23.8c0.3-1.1,0.4-1.8,0.4-2.3c0-0.6-0.2-1.1-0.7-1.4s-1.3-0.4-2.5-0.4l0.2-1
			C1597.2,344.2,1599.1,344.3,1601.6,344.3z M1596.2,375.4c0,0.6,0.2,1,0.6,1.3s1.2,0.4,2.2,0.4c4.1,0,7-0.8,8.8-2.5
			s2.7-4.1,2.7-7.3c0-4.2-2.3-6.4-6.9-6.4h-3.9l-3.2,12.1C1596.3,374.1,1596.2,374.9,1596.2,375.4z M1603.2,360
			c1.9,0,3.5-0.4,4.9-1.3c1.4-0.9,2.5-2,3.3-3.5s1.2-3,1.2-4.6c0-1.9-0.4-3.3-1.2-4.2s-2.1-1.4-3.9-1.4c-1,0-1.7,0.1-2.3,0.3
			c-0.6,0.2-1,0.5-1.3,1s-0.6,1.2-0.8,2.1l-3,11.6H1603.2L1603.2,360z"/>
	</g>
</g>
</svg>
